<svg width="336" height="113" viewBox="0 0 336 113" fill="none" xmlns="http://www.w3.org/2000/svg">
<rect x="112" y="33" width="7" height="29" fill="url(#paint0_linear_36_12)"/>
<rect x="127" width="7" height="62" fill="url(#paint1_linear_36_12)"/>
<rect x="142" y="12" width="7" height="50" fill="url(#paint2_linear_36_12)"/>
<rect x="157" y="44" width="7" height="18" fill="url(#paint3_linear_36_12)"/>
<rect x="172" y="5" width="7" height="57" fill="url(#paint4_linear_36_12)"/>
<rect x="187" width="7" height="62" fill="url(#paint5_linear_36_12)"/>
<rect x="202" y="26" width="7" height="36" fill="url(#paint6_linear_36_12)"/>
<rect x="217" y="44" width="7" height="18" fill="url(#paint7_linear_36_12)"/>
<path d="M5.00977 92.7852L15.2227 96.7227L14.3789 101.609L0.544922 95.2109L1.16016 91.7129L5.00977 92.7852ZM16.418 89.7793L5.37891 93.5762L0.615234 94.7539L1.2832 90.8691L17.332 84.4883L16.418 89.7793ZM40.9746 97.127C41.0801 96.541 41.0332 96.043 40.834 95.6328C40.6465 95.2227 40.3652 94.877 39.9902 94.5957C39.6152 94.3145 39.1875 94.0742 38.707 93.875C38.2266 93.6758 37.7637 93.4883 37.3184 93.3125C36.4043 92.9609 35.502 92.5566 34.6113 92.0996C33.7324 91.6426 32.9355 91.1035 32.2207 90.4824C31.5059 89.8613 30.9434 89.1348 30.5332 88.3027C30.1348 87.459 29.9707 86.4746 30.041 85.3496C30.123 84.0723 30.4805 82.9707 31.1133 82.0449C31.7578 81.1074 32.584 80.3398 33.5918 79.7422C34.5996 79.1445 35.6836 78.7109 36.8438 78.4414C38.0156 78.1602 39.1699 78.0312 40.3066 78.0547C41.9004 78.0781 43.3242 78.4062 44.5781 79.0391C45.8438 79.6719 46.834 80.5801 47.5488 81.7637C48.2754 82.9355 48.6211 84.3418 48.5859 85.9824H43.0488C43.084 85.2676 42.9902 84.6465 42.7676 84.1191C42.5566 83.5918 42.2109 83.1816 41.7305 82.8887C41.25 82.5957 40.6406 82.4434 39.9023 82.4316C39.2695 82.4082 38.6426 82.502 38.0215 82.7129C37.4004 82.9238 36.8672 83.252 36.4219 83.6973C35.9766 84.1309 35.6895 84.6934 35.5605 85.3848C35.4785 85.9004 35.5547 86.3516 35.7891 86.7383C36.0352 87.1133 36.3691 87.4355 36.791 87.7051C37.2246 87.9629 37.6758 88.1855 38.1445 88.373C38.625 88.5605 39.0527 88.7188 39.4277 88.8477C40.377 89.2109 41.291 89.6328 42.1699 90.1133C43.0605 90.582 43.8457 91.1445 44.5254 91.8008C45.2168 92.4453 45.7441 93.2012 46.1074 94.0684C46.4707 94.9355 46.6172 95.9375 46.5469 97.0742C46.4531 98.3867 46.1016 99.5059 45.4922 100.432C44.8828 101.357 44.1035 102.113 43.1543 102.699C42.2051 103.285 41.1562 103.713 40.0078 103.982C38.8711 104.252 37.7168 104.381 36.5449 104.369C35.2559 104.346 34.043 104.146 32.9062 103.771C31.7812 103.396 30.7969 102.846 29.9531 102.119C29.1094 101.393 28.4531 100.508 27.9844 99.4648C27.5273 98.4102 27.3164 97.1973 27.3516 95.8262L32.9414 95.8438C32.8945 96.5234 32.9414 97.127 33.082 97.6543C33.2344 98.1699 33.4688 98.6035 33.7852 98.9551C34.1133 99.2949 34.5293 99.5527 35.0332 99.7285C35.5488 99.9043 36.1582 99.9922 36.8613 99.9922C37.4824 100.004 38.0859 99.9102 38.6719 99.7109C39.2695 99.5117 39.7734 99.2012 40.1836 98.7793C40.6055 98.3574 40.8691 97.8066 40.9746 97.127ZM49.2363 94.7891L49.2715 94.4199C49.4238 93.0605 49.7578 91.7832 50.2734 90.5879C50.7891 89.3926 51.4746 88.3438 52.3301 87.4414C53.1855 86.5391 54.1934 85.8359 55.3535 85.332C56.5137 84.8281 57.8145 84.5938 59.2559 84.6289C60.6387 84.6523 61.834 84.9277 62.8418 85.4551C63.8613 85.9707 64.6934 86.6738 65.3379 87.5645C65.9824 88.4551 66.4395 89.4746 66.709 90.623C66.9785 91.7715 67.0547 92.9902 66.9375 94.2793L66.9023 94.666C66.75 96.0137 66.4102 97.2793 65.8828 98.4629C65.3555 99.6465 64.6641 100.684 63.8086 101.574C62.9531 102.465 61.9453 103.162 60.7852 103.666C59.625 104.158 58.3301 104.387 56.9004 104.352C55.5293 104.328 54.334 104.059 53.3145 103.543C52.3066 103.027 51.4805 102.33 50.8359 101.451C50.1914 100.572 49.7344 99.5645 49.4648 98.4277C49.1953 97.291 49.1191 96.0781 49.2363 94.7891ZM54.6328 94.4199L54.5977 94.7891C54.5625 95.3164 54.5449 95.8848 54.5449 96.4941C54.5566 97.0918 54.6387 97.666 54.791 98.2168C54.9551 98.7676 55.2246 99.2188 55.5996 99.5703C55.9863 99.9102 56.5254 100.092 57.2168 100.115C57.9668 100.139 58.5996 99.9863 59.1152 99.6582C59.6309 99.3301 60.0527 98.8906 60.3809 98.3398C60.7207 97.7773 60.9785 97.1738 61.1543 96.5293C61.3418 95.8848 61.4648 95.2578 61.5234 94.6484L61.5586 94.2793C61.6055 93.7637 61.623 93.2012 61.6113 92.5918C61.6113 91.9707 61.5293 91.3848 61.3652 90.834C61.2129 90.2715 60.9434 89.8145 60.5566 89.4629C60.1699 89.0996 59.6309 88.9062 58.9395 88.8828C58.1895 88.8594 57.5508 89.0176 57.0234 89.3574C56.5078 89.6973 56.0859 90.1484 55.7578 90.7109C55.4297 91.2734 55.1777 91.8828 55.002 92.5391C54.8262 93.1836 54.7031 93.8105 54.6328 94.4199ZM75.8848 89.709L73.4062 104H68.0449L71.3496 84.9805H76.3594L75.8848 89.709ZM82.0898 84.8223L81.4219 89.9375C81.1172 89.8906 80.8184 89.8496 80.5254 89.8145C80.2324 89.7793 79.9336 89.7617 79.6289 89.7617C78.9609 89.75 78.3574 89.832 77.8184 90.0078C77.291 90.1719 76.8281 90.4238 76.4297 90.7637C76.043 91.1035 75.7207 91.5254 75.4629 92.0293C75.2051 92.5215 75.0117 93.084 74.8828 93.7168L73.8984 93.2246C74.0273 92.3223 74.2266 91.373 74.4961 90.377C74.7656 89.3691 75.1406 88.4258 75.6211 87.5469C76.1133 86.6562 76.7402 85.9414 77.502 85.4023C78.2754 84.8516 79.2246 84.5762 80.3496 84.5762C80.6426 84.5762 80.9297 84.5996 81.2109 84.6465C81.5039 84.6934 81.7969 84.752 82.0898 84.8223ZM94.623 84.9805L93.9375 88.8301H82.9863L83.6543 84.9805H94.623ZM86.9766 80.2695H92.3379L89.2793 98.0762C89.2324 98.4863 89.2324 98.8262 89.2793 99.0957C89.3379 99.3652 89.4668 99.5762 89.666 99.7285C89.877 99.8691 90.1992 99.9512 90.6328 99.9746C90.8906 99.9863 91.1426 99.9805 91.3887 99.957C91.6348 99.9219 91.8809 99.8926 92.127 99.8691L91.7402 103.895C91.2598 104.047 90.7676 104.158 90.2637 104.229C89.7715 104.299 89.2676 104.334 88.752 104.334C87.5918 104.311 86.6309 104.07 85.8691 103.613C85.1074 103.145 84.5566 102.488 84.2168 101.645C83.8887 100.789 83.7773 99.793 83.8828 98.6562L86.9766 80.2695ZM102.779 84.9805L99.4922 104H94.1133L97.418 84.9805H102.779ZM97.9453 80.1465C97.9219 79.291 98.2031 78.6113 98.7891 78.1074C99.3867 77.5918 100.096 77.3281 100.916 77.3164C101.701 77.3047 102.393 77.5391 102.99 78.0195C103.588 78.4883 103.893 79.1328 103.904 79.9531C103.916 80.8086 103.623 81.4941 103.025 82.0098C102.439 82.5137 101.742 82.7715 100.934 82.7832C100.148 82.7949 99.457 82.5664 98.8594 82.0977C98.2734 81.6289 97.9688 80.9785 97.9453 80.1465ZM111.059 89.3398L108.492 104H103.131L106.436 84.9805H111.445L111.059 89.3398ZM109.6 93.8223L108.387 93.875C108.504 92.7383 108.75 91.6133 109.125 90.5C109.5 89.3867 110.016 88.3848 110.672 87.4941C111.34 86.5918 112.16 85.8828 113.133 85.3672C114.105 84.8398 115.248 84.5879 116.561 84.6113C117.615 84.6465 118.482 84.875 119.162 85.2969C119.854 85.707 120.381 86.2578 120.744 86.9492C121.119 87.6289 121.359 88.4023 121.465 89.2695C121.57 90.125 121.57 91.0156 121.465 91.9414L119.461 104H114.064L116.104 91.8887C116.162 91.3145 116.145 90.7988 116.051 90.3418C115.957 89.8848 115.74 89.5332 115.4 89.2871C115.072 89.0293 114.58 88.8887 113.924 88.8652C113.221 88.8535 112.617 88.9941 112.113 89.2871C111.609 89.5684 111.188 89.9551 110.848 90.4473C110.508 90.9277 110.238 91.4668 110.039 92.0645C109.852 92.6504 109.705 93.2363 109.6 93.8223ZM137.795 84.9805H142.717L139.588 103.297C139.354 105.09 138.756 106.602 137.795 107.832C136.834 109.062 135.621 109.988 134.156 110.609C132.691 111.242 131.08 111.535 129.322 111.488C128.479 111.477 127.646 111.354 126.826 111.119C126.018 110.896 125.25 110.562 124.523 110.117C123.809 109.684 123.176 109.139 122.625 108.482L125.227 105.318C125.742 105.975 126.34 106.479 127.02 106.83C127.711 107.193 128.473 107.387 129.305 107.41C130.172 107.434 130.945 107.275 131.625 106.936C132.305 106.607 132.861 106.133 133.295 105.512C133.74 104.902 134.039 104.17 134.191 103.314L136.6 89.1465L137.795 84.9805ZM123.82 94.8418L123.873 94.4727C124.014 93.2773 124.295 92.0879 124.717 90.9043C125.139 89.7207 125.707 88.6484 126.422 87.6875C127.148 86.7266 128.027 85.9707 129.059 85.4199C130.09 84.8574 131.297 84.5938 132.68 84.6289C133.945 84.6641 134.965 84.9863 135.738 85.5957C136.523 86.2051 137.115 86.9902 137.514 87.9512C137.912 88.9004 138.176 89.9316 138.305 91.0449C138.434 92.1465 138.475 93.2188 138.428 94.2617L138.375 94.9121C138.188 95.9434 137.877 97.0215 137.443 98.1465C137.01 99.2598 136.447 100.297 135.756 101.258C135.076 102.207 134.262 102.975 133.312 103.561C132.363 104.135 131.273 104.404 130.043 104.369C128.766 104.346 127.699 104.041 126.844 103.455C126 102.869 125.338 102.113 124.857 101.188C124.377 100.25 124.055 99.2305 123.891 98.1289C123.738 97.0156 123.715 95.9199 123.82 94.8418ZM129.252 94.4727L129.217 94.8418C129.158 95.334 129.135 95.8789 129.146 96.4766C129.158 97.0625 129.24 97.6309 129.393 98.1816C129.545 98.7207 129.803 99.1719 130.166 99.5352C130.541 99.8867 131.062 100.074 131.73 100.098C132.633 100.133 133.395 99.9395 134.016 99.5176C134.648 99.084 135.141 98.5156 135.492 97.8125C135.855 97.1094 136.096 96.3535 136.213 95.5449L136.459 93.6816C136.518 93.1309 136.535 92.5801 136.512 92.0293C136.488 91.4785 136.383 90.9688 136.195 90.5C136.02 90.0312 135.732 89.6504 135.334 89.3574C134.947 89.0527 134.414 88.8945 133.734 88.8828C132.996 88.8594 132.357 89.0234 131.818 89.375C131.291 89.7148 130.852 90.1719 130.5 90.7461C130.148 91.3086 129.867 91.918 129.656 92.5742C129.457 93.2305 129.322 93.8633 129.252 94.4727ZM162.387 98.0762L170.912 78.4062H177.311L164.795 104H160.594L162.387 98.0762ZM160.4 78.4062L162.826 98.5859L162.809 104H158.818L154.354 78.4062H160.4ZM183.744 84.9805L180.457 104H175.078L178.383 84.9805H183.744ZM178.91 80.1465C178.887 79.291 179.168 78.6113 179.754 78.1074C180.352 77.5918 181.061 77.3281 181.881 77.3164C182.666 77.3047 183.357 77.5391 183.955 78.0195C184.553 78.4883 184.857 79.1328 184.869 79.9531C184.881 80.8086 184.588 81.4941 183.99 82.0098C183.404 82.5137 182.707 82.7715 181.898 82.7832C181.113 82.7949 180.422 82.5664 179.824 82.0977C179.238 81.6289 178.934 80.9785 178.91 80.1465ZM195.082 98.6035C195.188 98.0762 195.047 97.666 194.66 97.373C194.285 97.0801 193.828 96.8633 193.289 96.7227C192.762 96.5703 192.322 96.4473 191.971 96.3535C191.256 96.1777 190.541 95.9434 189.826 95.6504C189.123 95.3574 188.484 94.9883 187.91 94.543C187.348 94.0977 186.896 93.5586 186.557 92.9258C186.217 92.293 186.064 91.5488 186.1 90.6934C186.146 89.6504 186.41 88.748 186.891 87.9863C187.383 87.2246 188.021 86.5918 188.807 86.0879C189.592 85.584 190.447 85.209 191.373 84.9629C192.311 84.7168 193.242 84.6055 194.168 84.6289C195.434 84.6406 196.623 84.875 197.736 85.332C198.861 85.7773 199.77 86.457 200.461 87.3711C201.164 88.2734 201.516 89.416 201.516 90.7988L196.189 90.7812C196.201 90.2891 196.131 89.8613 195.979 89.498C195.826 89.1348 195.586 88.8594 195.258 88.6719C194.93 88.4727 194.502 88.373 193.975 88.373C193.564 88.3613 193.154 88.4375 192.744 88.6016C192.346 88.7656 192 89 191.707 89.3047C191.426 89.6094 191.25 89.9844 191.18 90.4297C191.109 90.793 191.156 91.0977 191.32 91.3438C191.496 91.5898 191.73 91.7891 192.023 91.9414C192.328 92.082 192.645 92.1992 192.973 92.293C193.312 92.3867 193.617 92.4629 193.887 92.5215C194.93 92.7793 195.943 93.1191 196.928 93.541C197.924 93.9629 198.738 94.5605 199.371 95.334C200.004 96.1074 200.303 97.127 200.268 98.3926C200.221 99.4707 199.928 100.391 199.389 101.152C198.85 101.914 198.158 102.535 197.314 103.016C196.482 103.484 195.574 103.824 194.59 104.035C193.617 104.258 192.674 104.363 191.76 104.352C190.482 104.328 189.275 104.07 188.139 103.578C187.002 103.074 186.082 102.348 185.379 101.398C184.676 100.449 184.312 99.2832 184.289 97.9004L189.281 97.918C189.293 98.5039 189.404 98.9961 189.615 99.3945C189.826 99.7812 190.137 100.08 190.547 100.291C190.957 100.49 191.449 100.596 192.023 100.607C192.469 100.607 192.908 100.543 193.342 100.414C193.775 100.273 194.15 100.057 194.467 99.7637C194.783 99.459 194.988 99.0723 195.082 98.6035ZM213.82 99.1309L216.281 84.9805H221.66L218.355 104H213.346L213.82 99.1309ZM214.928 95.5098L216.404 95.4746C216.275 96.5645 216.029 97.6484 215.666 98.7266C215.314 99.793 214.822 100.754 214.189 101.609C213.568 102.465 212.789 103.145 211.852 103.648C210.926 104.152 209.83 104.393 208.564 104.369C207.521 104.346 206.643 104.146 205.928 103.771C205.213 103.396 204.639 102.881 204.205 102.225C203.783 101.568 203.496 100.818 203.344 99.9746C203.203 99.1309 203.18 98.2344 203.273 97.2852L205.33 84.9805H210.691L208.6 97.3555C208.564 97.7188 208.564 98.0645 208.6 98.3926C208.646 98.7207 208.74 99.0078 208.881 99.2539C209.021 99.5 209.221 99.6992 209.479 99.8516C209.748 99.9922 210.094 100.068 210.516 100.08C211.465 100.127 212.238 99.9395 212.836 99.5176C213.445 99.084 213.914 98.5156 214.242 97.8125C214.582 97.0977 214.811 96.3301 214.928 95.5098ZM232.4 99.4648L233.684 91.2383C233.73 90.7695 233.713 90.3301 233.631 89.9199C233.561 89.5098 233.385 89.1758 233.104 88.918C232.822 88.6484 232.406 88.5078 231.855 88.4961C231.375 88.4844 230.947 88.5723 230.572 88.7598C230.209 88.9355 229.91 89.1934 229.676 89.5332C229.453 89.873 229.295 90.2715 229.201 90.7285L223.822 90.7637C223.881 89.6855 224.174 88.7539 224.701 87.9688C225.24 87.1836 225.926 86.5449 226.758 86.0527C227.59 85.5488 228.498 85.1797 229.482 84.9453C230.467 84.7109 231.434 84.6055 232.383 84.6289C233.707 84.6523 234.902 84.9336 235.969 85.4727C237.035 86 237.85 86.7617 238.412 87.7578C238.986 88.7422 239.209 89.9375 239.08 91.3438L237.797 99.3242C237.691 100.016 237.598 100.748 237.516 101.521C237.445 102.283 237.557 102.998 237.85 103.666L237.832 104L232.576 104.018C232.342 103.291 232.225 102.541 232.225 101.768C232.225 100.982 232.283 100.215 232.4 99.4648ZM234.281 92.3984L233.789 95.4219L231.398 95.4043C230.93 95.416 230.467 95.4863 230.01 95.6152C229.553 95.7324 229.143 95.9199 228.779 96.1777C228.416 96.4238 228.111 96.7402 227.865 97.127C227.619 97.502 227.467 97.9473 227.408 98.4629C227.35 98.8379 227.379 99.1719 227.496 99.4648C227.625 99.7461 227.818 99.9688 228.076 100.133C228.334 100.297 228.65 100.385 229.025 100.396C229.576 100.408 230.109 100.309 230.625 100.098C231.152 99.875 231.609 99.5645 231.996 99.166C232.383 98.7559 232.646 98.2871 232.787 97.7598L233.824 100.08C233.531 100.725 233.18 101.311 232.77 101.838C232.359 102.365 231.896 102.822 231.381 103.209C230.865 103.584 230.291 103.877 229.658 104.088C229.037 104.299 228.357 104.398 227.619 104.387C226.564 104.363 225.598 104.117 224.719 103.648C223.852 103.168 223.16 102.512 222.645 101.68C222.129 100.848 221.895 99.8867 221.941 98.7969C221.988 97.5312 222.299 96.4883 222.873 95.668C223.447 94.8359 224.191 94.1797 225.105 93.6992C226.02 93.2188 227.016 92.8789 228.094 92.6797C229.172 92.4805 230.244 92.3809 231.311 92.3809L234.281 92.3984ZM250.77 77L246.094 104H240.715L245.391 77H250.77ZM258.803 84.9805L255.516 104H250.137L253.441 84.9805H258.803ZM253.969 80.1465C253.945 79.291 254.227 78.6113 254.812 78.1074C255.41 77.5918 256.119 77.3281 256.939 77.3164C257.725 77.3047 258.416 77.5391 259.014 78.0195C259.611 78.4883 259.916 79.1328 259.928 79.9531C259.939 80.8086 259.646 81.4941 259.049 82.0098C258.463 82.5137 257.766 82.7715 256.957 82.7832C256.172 82.7949 255.48 82.5664 254.883 82.0977C254.297 81.6289 253.992 80.9785 253.969 80.1465ZM274.975 99.7285L274.236 104H260.051L260.789 99.7285H274.975ZM276.75 88.2852L262.529 104H258.715L259.295 100.607L273.463 84.9805H277.312L276.75 88.2852ZM275.502 84.9805L274.764 89.252H261.58L262.318 84.9805H275.502ZM286.066 104.352C284.754 104.328 283.564 104.082 282.498 103.613C281.443 103.145 280.553 102.5 279.826 101.68C279.1 100.848 278.566 99.8809 278.227 98.7793C277.887 97.6777 277.764 96.4766 277.857 95.1758L277.928 94.4902C278.068 93.1309 278.391 91.8535 278.895 90.6582C279.41 89.4629 280.096 88.4082 280.951 87.4941C281.807 86.5684 282.814 85.8535 283.975 85.3496C285.146 84.834 286.453 84.5938 287.895 84.6289C289.219 84.6523 290.355 84.9219 291.305 85.4375C292.266 85.9414 293.039 86.627 293.625 87.4941C294.223 88.3613 294.633 89.3457 294.855 90.4473C295.078 91.5488 295.125 92.7148 294.996 93.9453L294.68 96.1953H279.791L280.354 92.6621L289.863 92.6797L289.969 92.2051C290.051 91.6074 290.021 91.0625 289.881 90.5703C289.74 90.0664 289.477 89.6621 289.09 89.3574C288.703 89.0527 288.182 88.8887 287.525 88.8652C286.764 88.8535 286.125 89.0176 285.609 89.3574C285.094 89.6973 284.678 90.1543 284.361 90.7285C284.045 91.291 283.799 91.9062 283.623 92.5742C283.459 93.2305 283.336 93.8691 283.254 94.4902L283.184 95.1582C283.137 95.7676 283.154 96.3594 283.236 96.9336C283.33 97.5078 283.506 98.0293 283.764 98.498C284.033 98.9551 284.396 99.3301 284.854 99.623C285.322 99.9043 285.902 100.057 286.594 100.08C287.496 100.104 288.334 99.9277 289.107 99.5527C289.893 99.1777 290.596 98.6738 291.217 98.041L293.537 100.977C292.998 101.773 292.318 102.424 291.498 102.928C290.678 103.42 289.793 103.783 288.844 104.018C287.906 104.252 286.98 104.363 286.066 104.352ZM303.697 89.709L301.219 104H295.857L299.162 84.9805H304.172L303.697 89.709ZM309.902 84.8223L309.234 89.9375C308.93 89.8906 308.631 89.8496 308.338 89.8145C308.045 89.7793 307.746 89.7617 307.441 89.7617C306.773 89.75 306.17 89.832 305.631 90.0078C305.104 90.1719 304.641 90.4238 304.242 90.7637C303.855 91.1035 303.533 91.5254 303.275 92.0293C303.018 92.5215 302.824 93.084 302.695 93.7168L301.711 93.2246C301.84 92.3223 302.039 91.373 302.309 90.377C302.578 89.3691 302.953 88.4258 303.434 87.5469C303.926 86.6562 304.553 85.9414 305.314 85.4023C306.088 84.8516 307.037 84.5762 308.162 84.5762C308.455 84.5762 308.742 84.5996 309.023 84.6465C309.316 84.6934 309.609 84.752 309.902 84.8223ZM330.662 93.4883L320.432 89.5684L321.275 84.7168L335.127 91.1152L334.512 94.6309L330.662 93.4883ZM319.219 96.5645L330.293 92.75L335.057 91.5723L334.371 95.457L318.287 101.838L319.219 96.5645Z" fill="white"/>
<defs>
<linearGradient id="paint0_linear_36_12" x1="115.5" y1="33" x2="115.5" y2="62" gradientUnits="userSpaceOnUse">
<stop stop-color="#A4CCFB"/>
<stop offset="1" stop-color="#2265B4"/>
</linearGradient>
<linearGradient id="paint1_linear_36_12" x1="130.5" y1="0" x2="130.5" y2="62" gradientUnits="userSpaceOnUse">
<stop stop-color="#A4CCFB"/>
<stop offset="1" stop-color="#2265B4"/>
</linearGradient>
<linearGradient id="paint2_linear_36_12" x1="145.5" y1="12" x2="145.5" y2="62" gradientUnits="userSpaceOnUse">
<stop stop-color="#A4CCFB"/>
<stop offset="1" stop-color="#2265B4"/>
</linearGradient>
<linearGradient id="paint3_linear_36_12" x1="160.5" y1="44" x2="160.5" y2="62" gradientUnits="userSpaceOnUse">
<stop stop-color="#A4CCFB"/>
<stop offset="1" stop-color="#2265B4"/>
</linearGradient>
<linearGradient id="paint4_linear_36_12" x1="175.5" y1="5" x2="175.5" y2="62" gradientUnits="userSpaceOnUse">
<stop stop-color="#A4CCFB"/>
<stop offset="1" stop-color="#2265B4"/>
</linearGradient>
<linearGradient id="paint5_linear_36_12" x1="190.5" y1="0" x2="190.5" y2="62" gradientUnits="userSpaceOnUse">
<stop stop-color="#A4CCFB"/>
<stop offset="1" stop-color="#2265B4"/>
</linearGradient>
<linearGradient id="paint6_linear_36_12" x1="205.5" y1="26" x2="205.5" y2="62" gradientUnits="userSpaceOnUse">
<stop stop-color="#A4CCFB"/>
<stop offset="1" stop-color="#2265B4"/>
</linearGradient>
<linearGradient id="paint7_linear_36_12" x1="220.5" y1="44" x2="220.5" y2="62" gradientUnits="userSpaceOnUse">
<stop stop-color="#A4CCFB"/>
<stop offset="1" stop-color="#2265B4"/>
</linearGradient>
</defs>
</svg>
